<?xml version="1.0" encoding="utf-8" standalone="no"?>
<!DOCTYPE svg PUBLIC "-//W3C//DTD SVG 1.1//EN"
  "http://www.w3.org/Graphics/SVG/1.1/DTD/svg11.dtd">
<svg xmlns:xlink="http://www.w3.org/1999/xlink" width="360pt" height="720pt" viewBox="0 0 360 720" xmlns="http://www.w3.org/2000/svg" version="1.1">
 <metadata>
  <rdf:RDF xmlns:dc="http://purl.org/dc/elements/1.1/" xmlns:cc="http://creativecommons.org/ns#" xmlns:rdf="http://www.w3.org/1999/02/22-rdf-syntax-ns#">
   <cc:Work>
    <dc:type rdf:resource="http://purl.org/dc/dcmitype/StillImage"/>
    <dc:date>2023-10-10T16:50:53.487976</dc:date>
    <dc:format>image/svg+xml</dc:format>
    <dc:creator>
     <cc:Agent>
      <dc:title>Matplotlib v3.6.3, https://matplotlib.org/</dc:title>
     </cc:Agent>
    </dc:creator>
   </cc:Work>
  </rdf:RDF>
 </metadata>
 <defs>
  <style type="text/css">*{stroke-linejoin: round; stroke-linecap: butt}</style>
 </defs>
 <g id="figure_1">
  <g id="patch_1">
   <path d="M 0 720 
L 360 720 
L 360 0 
L 0 0 
z
" style="fill: #ffffff"/>
  </g>
  <g id="axes_1">
   <g id="patch_2">
    <path d="M 33.64 110.09 
L 338.175 110.09 
L 338.175 26.88 
L 33.64 26.88 
z
" style="fill: #ffffff"/>
   </g>
   <g id="matplotlib.axis_1"/>
   <g id="matplotlib.axis_2">
    <g id="ytick_1">
     <g id="line2d_1">
      <defs>
       <path id="m5c554b0532" d="M 0 0 
L -3.5 0 
" style="stroke: #000000; stroke-width: 0.8"/>
      </defs>
      <g>
       <use xlink:href="#m5c554b0532" x="33.64" y="106.307727" style="stroke: #000000; stroke-width: 0.8"/>
      </g>
     </g>
     <g id="text_1">
      <!-- 0.0 -->
      <g transform="translate(10.736875 110.106946) scale(0.1 -0.1)">
       <defs>
        <path id="DejaVuSans-30" d="M 2034 4250 
Q 1547 4250 1301 3770 
Q 1056 3291 1056 2328 
Q 1056 1369 1301 889 
Q 1547 409 2034 409 
Q 2525 409 2770 889 
Q 3016 1369 3016 2328 
Q 3016 3291 2770 3770 
Q 2525 4250 2034 4250 
z
M 2034 4750 
Q 2819 4750 3233 4129 
Q 3647 3509 3647 2328 
Q 3647 1150 3233 529 
Q 2819 -91 2034 -91 
Q 1250 -91 836 529 
Q 422 1150 422 2328 
Q 422 3509 836 4129 
Q 1250 4750 2034 4750 
z
" transform="scale(0.015625)"/>
        <path id="DejaVuSans-2e" d="M 684 794 
L 1344 794 
L 1344 0 
L 684 0 
L 684 794 
z
" transform="scale(0.015625)"/>
       </defs>
       <use xlink:href="#DejaVuSans-30"/>
       <use xlink:href="#DejaVuSans-2e" x="63.623047"/>
       <use xlink:href="#DejaVuSans-30" x="95.410156"/>
      </g>
     </g>
    </g>
    <g id="ytick_2">
     <g id="line2d_2">
      <g>
       <use xlink:href="#m5c554b0532" x="33.64" y="68.485" style="stroke: #000000; stroke-width: 0.8"/>
      </g>
     </g>
     <g id="text_2">
      <!-- 0.5 -->
      <g transform="translate(10.736875 72.284219) scale(0.1 -0.1)">
       <defs>
        <path id="DejaVuSans-35" d="M 691 4666 
L 3169 4666 
L 3169 4134 
L 1269 4134 
L 1269 2991 
Q 1406 3038 1543 3061 
Q 1681 3084 1819 3084 
Q 2600 3084 3056 2656 
Q 3513 2228 3513 1497 
Q 3513 744 3044 326 
Q 2575 -91 1722 -91 
Q 1428 -91 1123 -41 
Q 819 9 494 109 
L 494 744 
Q 775 591 1075 516 
Q 1375 441 1709 441 
Q 2250 441 2565 725 
Q 2881 1009 2881 1497 
Q 2881 1984 2565 2268 
Q 2250 2553 1709 2553 
Q 1456 2553 1204 2497 
Q 953 2441 691 2322 
L 691 4666 
z
" transform="scale(0.015625)"/>
       </defs>
       <use xlink:href="#DejaVuSans-30"/>
       <use xlink:href="#DejaVuSans-2e" x="63.623047"/>
       <use xlink:href="#DejaVuSans-35" x="95.410156"/>
      </g>
     </g>
    </g>
    <g id="ytick_3">
     <g id="line2d_3">
      <g>
       <use xlink:href="#m5c554b0532" x="33.64" y="30.662273" style="stroke: #000000; stroke-width: 0.8"/>
      </g>
     </g>
     <g id="text_3">
      <!-- 1.0 -->
      <g transform="translate(10.736875 34.461491) scale(0.1 -0.1)">
       <defs>
        <path id="DejaVuSans-31" d="M 794 531 
L 1825 531 
L 1825 4091 
L 703 3866 
L 703 4441 
L 1819 4666 
L 2450 4666 
L 2450 531 
L 3481 531 
L 3481 0 
L 794 0 
L 794 531 
z
" transform="scale(0.015625)"/>
       </defs>
       <use xlink:href="#DejaVuSans-31"/>
       <use xlink:href="#DejaVuSans-2e" x="63.623047"/>
       <use xlink:href="#DejaVuSans-30" x="95.410156"/>
      </g>
     </g>
    </g>
   </g>
   <g id="line2d_4">
    <path d="M 33.64 30.662273 
L 185.902424 30.662273 
L 186.014087 106.307727 
L 338.169924 106.307727 
L 338.169924 106.307727 
" clip-path="url(#p61331c5ca7)" style="fill: none; stroke: #000000; stroke-width: 2; stroke-linecap: square"/>
   </g>
   <g id="patch_3">
    <path d="M 33.64 110.09 
L 33.64 26.88 
" style="fill: none; stroke: #000000; stroke-width: 0.8; stroke-linejoin: miter; stroke-linecap: square"/>
   </g>
   <g id="patch_4">
    <path d="M 338.175 110.09 
L 338.175 26.88 
" style="fill: none; stroke: #000000; stroke-width: 0.8; stroke-linejoin: miter; stroke-linecap: square"/>
   </g>
   <g id="patch_5">
    <path d="M 33.64 110.09 
L 338.175 110.09 
" style="fill: none; stroke: #000000; stroke-width: 0.8; stroke-linejoin: miter; stroke-linecap: square"/>
   </g>
   <g id="patch_6">
    <path d="M 33.64 26.88 
L 338.175 26.88 
" style="fill: none; stroke: #000000; stroke-width: 0.8; stroke-linejoin: miter; stroke-linecap: square"/>
   </g>
   <g id="text_4">
    <!-- Stimulus -->
    <g transform="translate(159.8375 20.88) scale(0.12 -0.12)">
     <defs>
      <path id="DejaVuSans-53" d="M 3425 4513 
L 3425 3897 
Q 3066 4069 2747 4153 
Q 2428 4238 2131 4238 
Q 1616 4238 1336 4038 
Q 1056 3838 1056 3469 
Q 1056 3159 1242 3001 
Q 1428 2844 1947 2747 
L 2328 2669 
Q 3034 2534 3370 2195 
Q 3706 1856 3706 1288 
Q 3706 609 3251 259 
Q 2797 -91 1919 -91 
Q 1588 -91 1214 -16 
Q 841 59 441 206 
L 441 856 
Q 825 641 1194 531 
Q 1563 422 1919 422 
Q 2459 422 2753 634 
Q 3047 847 3047 1241 
Q 3047 1584 2836 1778 
Q 2625 1972 2144 2069 
L 1759 2144 
Q 1053 2284 737 2584 
Q 422 2884 422 3419 
Q 422 4038 858 4394 
Q 1294 4750 2059 4750 
Q 2388 4750 2728 4690 
Q 3069 4631 3425 4513 
z
" transform="scale(0.015625)"/>
      <path id="DejaVuSans-74" d="M 1172 4494 
L 1172 3500 
L 2356 3500 
L 2356 3053 
L 1172 3053 
L 1172 1153 
Q 1172 725 1289 603 
Q 1406 481 1766 481 
L 2356 481 
L 2356 0 
L 1766 0 
Q 1100 0 847 248 
Q 594 497 594 1153 
L 594 3053 
L 172 3053 
L 172 3500 
L 594 3500 
L 594 4494 
L 1172 4494 
z
" transform="scale(0.015625)"/>
      <path id="DejaVuSans-69" d="M 603 3500 
L 1178 3500 
L 1178 0 
L 603 0 
L 603 3500 
z
M 603 4863 
L 1178 4863 
L 1178 4134 
L 603 4134 
L 603 4863 
z
" transform="scale(0.015625)"/>
      <path id="DejaVuSans-6d" d="M 3328 2828 
Q 3544 3216 3844 3400 
Q 4144 3584 4550 3584 
Q 5097 3584 5394 3201 
Q 5691 2819 5691 2113 
L 5691 0 
L 5113 0 
L 5113 2094 
Q 5113 2597 4934 2840 
Q 4756 3084 4391 3084 
Q 3944 3084 3684 2787 
Q 3425 2491 3425 1978 
L 3425 0 
L 2847 0 
L 2847 2094 
Q 2847 2600 2669 2842 
Q 2491 3084 2119 3084 
Q 1678 3084 1418 2786 
Q 1159 2488 1159 1978 
L 1159 0 
L 581 0 
L 581 3500 
L 1159 3500 
L 1159 2956 
Q 1356 3278 1631 3431 
Q 1906 3584 2284 3584 
Q 2666 3584 2933 3390 
Q 3200 3197 3328 2828 
z
" transform="scale(0.015625)"/>
      <path id="DejaVuSans-75" d="M 544 1381 
L 544 3500 
L 1119 3500 
L 1119 1403 
Q 1119 906 1312 657 
Q 1506 409 1894 409 
Q 2359 409 2629 706 
Q 2900 1003 2900 1516 
L 2900 3500 
L 3475 3500 
L 3475 0 
L 2900 0 
L 2900 538 
Q 2691 219 2414 64 
Q 2138 -91 1772 -91 
Q 1169 -91 856 284 
Q 544 659 544 1381 
z
M 1991 3584 
L 1991 3584 
z
" transform="scale(0.015625)"/>
      <path id="DejaVuSans-6c" d="M 603 4863 
L 1178 4863 
L 1178 0 
L 603 0 
L 603 4863 
z
" transform="scale(0.015625)"/>
      <path id="DejaVuSans-73" d="M 2834 3397 
L 2834 2853 
Q 2591 2978 2328 3040 
Q 2066 3103 1784 3103 
Q 1356 3103 1142 2972 
Q 928 2841 928 2578 
Q 928 2378 1081 2264 
Q 1234 2150 1697 2047 
L 1894 2003 
Q 2506 1872 2764 1633 
Q 3022 1394 3022 966 
Q 3022 478 2636 193 
Q 2250 -91 1575 -91 
Q 1294 -91 989 -36 
Q 684 19 347 128 
L 347 722 
Q 666 556 975 473 
Q 1284 391 1588 391 
Q 1994 391 2212 530 
Q 2431 669 2431 922 
Q 2431 1156 2273 1281 
Q 2116 1406 1581 1522 
L 1381 1569 
Q 847 1681 609 1914 
Q 372 2147 372 2553 
Q 372 3047 722 3315 
Q 1072 3584 1716 3584 
Q 2034 3584 2315 3537 
Q 2597 3491 2834 3397 
z
" transform="scale(0.015625)"/>
     </defs>
     <use xlink:href="#DejaVuSans-53"/>
     <use xlink:href="#DejaVuSans-74" x="63.476562"/>
     <use xlink:href="#DejaVuSans-69" x="102.685547"/>
     <use xlink:href="#DejaVuSans-6d" x="130.46875"/>
     <use xlink:href="#DejaVuSans-75" x="227.880859"/>
     <use xlink:href="#DejaVuSans-6c" x="291.259766"/>
     <use xlink:href="#DejaVuSans-75" x="319.042969"/>
     <use xlink:href="#DejaVuSans-73" x="382.421875"/>
    </g>
   </g>
  </g>
  <g id="axes_2">
   <g id="patch_7">
    <path d="M 33.64 223.68 
L 338.175 223.68 
L 338.175 140.47 
L 33.64 140.47 
z
" style="fill: #ffffff"/>
   </g>
   <g id="matplotlib.axis_3"/>
   <g id="matplotlib.axis_4">
    <g id="ytick_4">
     <g id="line2d_5">
      <g>
       <use xlink:href="#m5c554b0532" x="33.64" y="203.567346" style="stroke: #000000; stroke-width: 0.8"/>
      </g>
     </g>
     <g id="text_5">
      <!-- 0.0 -->
      <g transform="translate(10.736875 207.366564) scale(0.1 -0.1)">
       <use xlink:href="#DejaVuSans-30"/>
       <use xlink:href="#DejaVuSans-2e" x="63.623047"/>
       <use xlink:href="#DejaVuSans-30" x="95.410156"/>
      </g>
     </g>
    </g>
    <g id="ytick_5">
     <g id="line2d_6">
      <g>
       <use xlink:href="#m5c554b0532" x="33.64" y="164.882557" style="stroke: #000000; stroke-width: 0.8"/>
      </g>
     </g>
     <g id="text_6">
      <!-- 0.2 -->
      <g transform="translate(10.736875 168.681776) scale(0.1 -0.1)">
       <defs>
        <path id="DejaVuSans-32" d="M 1228 531 
L 3431 531 
L 3431 0 
L 469 0 
L 469 531 
Q 828 903 1448 1529 
Q 2069 2156 2228 2338 
Q 2531 2678 2651 2914 
Q 2772 3150 2772 3378 
Q 2772 3750 2511 3984 
Q 2250 4219 1831 4219 
Q 1534 4219 1204 4116 
Q 875 4013 500 3803 
L 500 4441 
Q 881 4594 1212 4672 
Q 1544 4750 1819 4750 
Q 2544 4750 2975 4387 
Q 3406 4025 3406 3419 
Q 3406 3131 3298 2873 
Q 3191 2616 2906 2266 
Q 2828 2175 2409 1742 
Q 1991 1309 1228 531 
z
" transform="scale(0.015625)"/>
       </defs>
       <use xlink:href="#DejaVuSans-30"/>
       <use xlink:href="#DejaVuSans-2e" x="63.623047"/>
       <use xlink:href="#DejaVuSans-32" x="95.410156"/>
      </g>
     </g>
    </g>
   </g>
   <g id="line2d_7">
    <path d="M 33.64 203.373922 
L 34.289675 182.868129 
L 34.934274 169.080229 
L 35.573797 159.85986 
L 36.20317 153.789756 
L 36.817315 149.865338 
L 37.416234 147.369387 
L 37.99485 145.838591 
L 38.553165 144.944758 
L 39.096252 144.468965 
L 39.649491 144.270386 
L 40.268712 144.289242 
L 41.0402 144.549943 
L 42.116224 145.170077 
L 44.055097 146.590604 
L 48.049581 149.508996 
L 50.78532 151.209485 
L 53.587043 152.688545 
L 56.561334 154.005937 
L 59.774179 155.183547 
L 63.286482 156.23119 
L 67.179455 157.156675 
L 71.559683 157.964945 
L 76.579435 158.659687 
L 82.467112 159.243541 
L 89.593231 159.718658 
L 98.612542 160.086731 
L 110.859925 160.349703 
L 129.761397 160.510761 
L 169.234209 160.577737 
L 185.902424 160.581908 
L 186.552099 181.14991 
L 187.196698 194.980428 
L 187.836222 204.23006 
L 188.465594 210.320164 
L 189.07974 214.258222 
L 189.678658 216.763536 
L 190.257275 218.300754 
L 190.815589 219.199029 
L 191.358677 219.677942 
L 191.911915 219.878812 
L 192.531136 219.861753 
L 193.297549 219.604845 
L 194.368497 218.990216 
L 196.287068 217.586948 
L 200.327232 214.634829 
L 203.062972 212.935471 
L 205.864694 211.457446 
L 208.844061 210.138938 
L 212.056905 208.96253 
L 215.574285 207.914602 
L 219.472333 206.989283 
L 223.857637 206.181528 
L 228.882464 205.487545 
L 234.780292 204.904181 
L 241.916562 204.429898 
L 250.9511 204.062653 
L 263.228937 203.800413 
L 282.201467 203.640051 
L 321.963587 203.573674 
L 338.169924 203.569685 
L 338.169924 203.569685 
" clip-path="url(#p0a92d2ddff)" style="fill: none; stroke: #000000; stroke-width: 2; stroke-linecap: square"/>
   </g>
   <g id="patch_8">
    <path d="M 33.64 223.68 
L 33.64 140.47 
" style="fill: none; stroke: #000000; stroke-width: 0.8; stroke-linejoin: miter; stroke-linecap: square"/>
   </g>
   <g id="patch_9">
    <path d="M 338.175 223.68 
L 338.175 140.47 
" style="fill: none; stroke: #000000; stroke-width: 0.8; stroke-linejoin: miter; stroke-linecap: square"/>
   </g>
   <g id="patch_10">
    <path d="M 33.64 223.68 
L 338.175 223.68 
" style="fill: none; stroke: #000000; stroke-width: 0.8; stroke-linejoin: miter; stroke-linecap: square"/>
   </g>
   <g id="patch_11">
    <path d="M 33.64 140.47 
L 338.175 140.47 
" style="fill: none; stroke: #000000; stroke-width: 0.8; stroke-linejoin: miter; stroke-linecap: square"/>
   </g>
   <g id="text_7">
    <!-- Neuronal Response -->
    <g transform="translate(128.051563 134.47) scale(0.12 -0.12)">
     <defs>
      <path id="DejaVuSans-4e" d="M 628 4666 
L 1478 4666 
L 3547 763 
L 3547 4666 
L 4159 4666 
L 4159 0 
L 3309 0 
L 1241 3903 
L 1241 0 
L 628 0 
L 628 4666 
z
" transform="scale(0.015625)"/>
      <path id="DejaVuSans-65" d="M 3597 1894 
L 3597 1613 
L 953 1613 
Q 991 1019 1311 708 
Q 1631 397 2203 397 
Q 2534 397 2845 478 
Q 3156 559 3463 722 
L 3463 178 
Q 3153 47 2828 -22 
Q 2503 -91 2169 -91 
Q 1331 -91 842 396 
Q 353 884 353 1716 
Q 353 2575 817 3079 
Q 1281 3584 2069 3584 
Q 2775 3584 3186 3129 
Q 3597 2675 3597 1894 
z
M 3022 2063 
Q 3016 2534 2758 2815 
Q 2500 3097 2075 3097 
Q 1594 3097 1305 2825 
Q 1016 2553 972 2059 
L 3022 2063 
z
" transform="scale(0.015625)"/>
      <path id="DejaVuSans-72" d="M 2631 2963 
Q 2534 3019 2420 3045 
Q 2306 3072 2169 3072 
Q 1681 3072 1420 2755 
Q 1159 2438 1159 1844 
L 1159 0 
L 581 0 
L 581 3500 
L 1159 3500 
L 1159 2956 
Q 1341 3275 1631 3429 
Q 1922 3584 2338 3584 
Q 2397 3584 2469 3576 
Q 2541 3569 2628 3553 
L 2631 2963 
z
" transform="scale(0.015625)"/>
      <path id="DejaVuSans-6f" d="M 1959 3097 
Q 1497 3097 1228 2736 
Q 959 2375 959 1747 
Q 959 1119 1226 758 
Q 1494 397 1959 397 
Q 2419 397 2687 759 
Q 2956 1122 2956 1747 
Q 2956 2369 2687 2733 
Q 2419 3097 1959 3097 
z
M 1959 3584 
Q 2709 3584 3137 3096 
Q 3566 2609 3566 1747 
Q 3566 888 3137 398 
Q 2709 -91 1959 -91 
Q 1206 -91 779 398 
Q 353 888 353 1747 
Q 353 2609 779 3096 
Q 1206 3584 1959 3584 
z
" transform="scale(0.015625)"/>
      <path id="DejaVuSans-6e" d="M 3513 2113 
L 3513 0 
L 2938 0 
L 2938 2094 
Q 2938 2591 2744 2837 
Q 2550 3084 2163 3084 
Q 1697 3084 1428 2787 
Q 1159 2491 1159 1978 
L 1159 0 
L 581 0 
L 581 3500 
L 1159 3500 
L 1159 2956 
Q 1366 3272 1645 3428 
Q 1925 3584 2291 3584 
Q 2894 3584 3203 3211 
Q 3513 2838 3513 2113 
z
" transform="scale(0.015625)"/>
      <path id="DejaVuSans-61" d="M 2194 1759 
Q 1497 1759 1228 1600 
Q 959 1441 959 1056 
Q 959 750 1161 570 
Q 1363 391 1709 391 
Q 2188 391 2477 730 
Q 2766 1069 2766 1631 
L 2766 1759 
L 2194 1759 
z
M 3341 1997 
L 3341 0 
L 2766 0 
L 2766 531 
Q 2569 213 2275 61 
Q 1981 -91 1556 -91 
Q 1019 -91 701 211 
Q 384 513 384 1019 
Q 384 1609 779 1909 
Q 1175 2209 1959 2209 
L 2766 2209 
L 2766 2266 
Q 2766 2663 2505 2880 
Q 2244 3097 1772 3097 
Q 1472 3097 1187 3025 
Q 903 2953 641 2809 
L 641 3341 
Q 956 3463 1253 3523 
Q 1550 3584 1831 3584 
Q 2591 3584 2966 3190 
Q 3341 2797 3341 1997 
z
" transform="scale(0.015625)"/>
      <path id="DejaVuSans-20" transform="scale(0.015625)"/>
      <path id="DejaVuSans-52" d="M 2841 2188 
Q 3044 2119 3236 1894 
Q 3428 1669 3622 1275 
L 4263 0 
L 3584 0 
L 2988 1197 
Q 2756 1666 2539 1819 
Q 2322 1972 1947 1972 
L 1259 1972 
L 1259 0 
L 628 0 
L 628 4666 
L 2053 4666 
Q 2853 4666 3247 4331 
Q 3641 3997 3641 3322 
Q 3641 2881 3436 2590 
Q 3231 2300 2841 2188 
z
M 1259 4147 
L 1259 2491 
L 2053 2491 
Q 2509 2491 2742 2702 
Q 2975 2913 2975 3322 
Q 2975 3731 2742 3939 
Q 2509 4147 2053 4147 
L 1259 4147 
z
" transform="scale(0.015625)"/>
      <path id="DejaVuSans-70" d="M 1159 525 
L 1159 -1331 
L 581 -1331 
L 581 3500 
L 1159 3500 
L 1159 2969 
Q 1341 3281 1617 3432 
Q 1894 3584 2278 3584 
Q 2916 3584 3314 3078 
Q 3713 2572 3713 1747 
Q 3713 922 3314 415 
Q 2916 -91 2278 -91 
Q 1894 -91 1617 61 
Q 1341 213 1159 525 
z
M 3116 1747 
Q 3116 2381 2855 2742 
Q 2594 3103 2138 3103 
Q 1681 3103 1420 2742 
Q 1159 2381 1159 1747 
Q 1159 1113 1420 752 
Q 1681 391 2138 391 
Q 2594 391 2855 752 
Q 3116 1113 3116 1747 
z
" transform="scale(0.015625)"/>
     </defs>
     <use xlink:href="#DejaVuSans-4e"/>
     <use xlink:href="#DejaVuSans-65" x="74.804688"/>
     <use xlink:href="#DejaVuSans-75" x="136.328125"/>
     <use xlink:href="#DejaVuSans-72" x="199.707031"/>
     <use xlink:href="#DejaVuSans-6f" x="238.570312"/>
     <use xlink:href="#DejaVuSans-6e" x="299.751953"/>
     <use xlink:href="#DejaVuSans-61" x="363.130859"/>
     <use xlink:href="#DejaVuSans-6c" x="424.410156"/>
     <use xlink:href="#DejaVuSans-20" x="452.193359"/>
     <use xlink:href="#DejaVuSans-52" x="483.980469"/>
     <use xlink:href="#DejaVuSans-65" x="548.962891"/>
     <use xlink:href="#DejaVuSans-73" x="610.486328"/>
     <use xlink:href="#DejaVuSans-70" x="662.585938"/>
     <use xlink:href="#DejaVuSans-6f" x="726.0625"/>
     <use xlink:href="#DejaVuSans-6e" x="787.244141"/>
     <use xlink:href="#DejaVuSans-73" x="850.623047"/>
     <use xlink:href="#DejaVuSans-65" x="902.722656"/>
    </g>
   </g>
  </g>
  <g id="axes_3">
   <g id="patch_12">
    <path d="M 33.64 337.27 
L 338.175 337.27 
L 338.175 254.06 
L 33.64 254.06 
z
" style="fill: #ffffff"/>
   </g>
   <g id="matplotlib.axis_5"/>
   <g id="matplotlib.axis_6">
    <g id="ytick_6">
     <g id="line2d_8">
      <g>
       <use xlink:href="#m5c554b0532" x="33.64" y="327.907361" style="stroke: #000000; stroke-width: 0.8"/>
      </g>
     </g>
     <g id="text_8">
      <!-- 1.0 -->
      <g transform="translate(10.736875 331.70658) scale(0.1 -0.1)">
       <use xlink:href="#DejaVuSans-31"/>
       <use xlink:href="#DejaVuSans-2e" x="63.623047"/>
       <use xlink:href="#DejaVuSans-30" x="95.410156"/>
      </g>
     </g>
    </g>
    <g id="ytick_7">
     <g id="line2d_9">
      <g>
       <use xlink:href="#m5c554b0532" x="33.64" y="293.086558" style="stroke: #000000; stroke-width: 0.8"/>
      </g>
     </g>
     <g id="text_9">
      <!-- 1.5 -->
      <g transform="translate(10.736875 296.885777) scale(0.1 -0.1)">
       <use xlink:href="#DejaVuSans-31"/>
       <use xlink:href="#DejaVuSans-2e" x="63.623047"/>
       <use xlink:href="#DejaVuSans-35" x="95.410156"/>
      </g>
     </g>
    </g>
    <g id="ytick_8">
     <g id="line2d_10">
      <g>
       <use xlink:href="#m5c554b0532" x="33.64" y="258.265755" style="stroke: #000000; stroke-width: 0.8"/>
      </g>
     </g>
     <g id="text_10">
      <!-- 2.0 -->
      <g transform="translate(10.736875 262.064974) scale(0.1 -0.1)">
       <use xlink:href="#DejaVuSans-32"/>
       <use xlink:href="#DejaVuSans-2e" x="63.623047"/>
       <use xlink:href="#DejaVuSans-30" x="95.410156"/>
      </g>
     </g>
    </g>
   </g>
   <g id="line2d_11">
    <path d="M 33.64 327.907361 
L 34.63989 327.796881 
L 35.269262 327.487204 
L 35.898635 326.916995 
L 36.588914 325.970955 
L 37.380705 324.483456 
L 38.324763 322.205337 
L 39.497223 318.754225 
L 41.07573 313.3547 
L 44.156609 301.819218 
L 47.044616 291.401327 
L 49.135756 284.672959 
L 51.003571 279.390106 
L 52.749571 275.099509 
L 54.419438 271.569423 
L 56.038549 268.652869 
L 57.627207 266.238953 
L 59.195562 264.251338 
L 60.763917 262.615964 
L 62.347499 261.281119 
L 63.971686 260.200688 
L 65.65678 259.345911 
L 67.438309 258.69183 
L 69.361956 258.224175 
L 71.493701 257.938501 
L 73.92998 257.84232 
L 76.83829 257.958523 
L 80.594221 258.34435 
L 86.695073 259.226878 
L 97.785222 260.821571 
L 105.033155 261.616963 
L 112.64653 262.224338 
L 121.366382 262.689935 
L 132.13677 263.032063 
L 146.845811 263.261276 
L 170.914227 263.386549 
L 186.947995 263.533618 
L 187.577367 263.859452 
L 188.206739 264.447894 
L 188.902094 265.42248 
L 189.704036 266.956256 
L 190.663322 269.305803 
L 191.856084 272.858501 
L 193.475195 278.443576 
L 197.154993 292.227995 
L 199.728313 301.323156 
L 201.763622 307.723738 
L 203.600984 312.791467 
L 205.331757 316.931505 
L 206.991473 320.340525 
L 208.605509 323.159975 
L 210.189091 325.488626 
L 211.757446 327.407653 
L 213.325801 328.982015 
L 214.914459 330.266382 
L 216.543721 331.300671 
L 218.244041 332.117603 
L 220.050949 332.737849 
L 222.010124 333.172508 
L 224.18755 333.423875 
L 226.694888 333.483268 
L 229.719935 333.323501 
L 233.714419 332.875428 
L 241.074015 331.779352 
L 250.276048 330.482002 
L 257.523981 329.693597 
L 265.162734 329.090934 
L 273.928266 328.629452 
L 284.784939 328.290941 
L 299.671625 328.06507 
L 324.232373 327.942851 
L 338.169924 327.922495 
L 338.169924 327.922495 
" clip-path="url(#p4130289b6b)" style="fill: none; stroke: #000000; stroke-width: 2; stroke-linecap: square"/>
   </g>
   <g id="patch_13">
    <path d="M 33.64 337.27 
L 33.64 254.06 
" style="fill: none; stroke: #000000; stroke-width: 0.8; stroke-linejoin: miter; stroke-linecap: square"/>
   </g>
   <g id="patch_14">
    <path d="M 338.175 337.27 
L 338.175 254.06 
" style="fill: none; stroke: #000000; stroke-width: 0.8; stroke-linejoin: miter; stroke-linecap: square"/>
   </g>
   <g id="patch_15">
    <path d="M 33.64 337.27 
L 338.175 337.27 
" style="fill: none; stroke: #000000; stroke-width: 0.8; stroke-linejoin: miter; stroke-linecap: square"/>
   </g>
   <g id="patch_16">
    <path d="M 33.64 254.06 
L 338.175 254.06 
" style="fill: none; stroke: #000000; stroke-width: 0.8; stroke-linejoin: miter; stroke-linecap: square"/>
   </g>
   <g id="text_11">
    <!-- Cerebral Blood Flow -->
    <g transform="translate(125.938438 248.06) scale(0.12 -0.12)">
     <defs>
      <path id="DejaVuSans-43" d="M 4122 4306 
L 4122 3641 
Q 3803 3938 3442 4084 
Q 3081 4231 2675 4231 
Q 1875 4231 1450 3742 
Q 1025 3253 1025 2328 
Q 1025 1406 1450 917 
Q 1875 428 2675 428 
Q 3081 428 3442 575 
Q 3803 722 4122 1019 
L 4122 359 
Q 3791 134 3420 21 
Q 3050 -91 2638 -91 
Q 1578 -91 968 557 
Q 359 1206 359 2328 
Q 359 3453 968 4101 
Q 1578 4750 2638 4750 
Q 3056 4750 3426 4639 
Q 3797 4528 4122 4306 
z
" transform="scale(0.015625)"/>
      <path id="DejaVuSans-62" d="M 3116 1747 
Q 3116 2381 2855 2742 
Q 2594 3103 2138 3103 
Q 1681 3103 1420 2742 
Q 1159 2381 1159 1747 
Q 1159 1113 1420 752 
Q 1681 391 2138 391 
Q 2594 391 2855 752 
Q 3116 1113 3116 1747 
z
M 1159 2969 
Q 1341 3281 1617 3432 
Q 1894 3584 2278 3584 
Q 2916 3584 3314 3078 
Q 3713 2572 3713 1747 
Q 3713 922 3314 415 
Q 2916 -91 2278 -91 
Q 1894 -91 1617 61 
Q 1341 213 1159 525 
L 1159 0 
L 581 0 
L 581 4863 
L 1159 4863 
L 1159 2969 
z
" transform="scale(0.015625)"/>
      <path id="DejaVuSans-42" d="M 1259 2228 
L 1259 519 
L 2272 519 
Q 2781 519 3026 730 
Q 3272 941 3272 1375 
Q 3272 1813 3026 2020 
Q 2781 2228 2272 2228 
L 1259 2228 
z
M 1259 4147 
L 1259 2741 
L 2194 2741 
Q 2656 2741 2882 2914 
Q 3109 3088 3109 3444 
Q 3109 3797 2882 3972 
Q 2656 4147 2194 4147 
L 1259 4147 
z
M 628 4666 
L 2241 4666 
Q 2963 4666 3353 4366 
Q 3744 4066 3744 3513 
Q 3744 3084 3544 2831 
Q 3344 2578 2956 2516 
Q 3422 2416 3680 2098 
Q 3938 1781 3938 1306 
Q 3938 681 3513 340 
Q 3088 0 2303 0 
L 628 0 
L 628 4666 
z
" transform="scale(0.015625)"/>
      <path id="DejaVuSans-64" d="M 2906 2969 
L 2906 4863 
L 3481 4863 
L 3481 0 
L 2906 0 
L 2906 525 
Q 2725 213 2448 61 
Q 2172 -91 1784 -91 
Q 1150 -91 751 415 
Q 353 922 353 1747 
Q 353 2572 751 3078 
Q 1150 3584 1784 3584 
Q 2172 3584 2448 3432 
Q 2725 3281 2906 2969 
z
M 947 1747 
Q 947 1113 1208 752 
Q 1469 391 1925 391 
Q 2381 391 2643 752 
Q 2906 1113 2906 1747 
Q 2906 2381 2643 2742 
Q 2381 3103 1925 3103 
Q 1469 3103 1208 2742 
Q 947 2381 947 1747 
z
" transform="scale(0.015625)"/>
      <path id="DejaVuSans-46" d="M 628 4666 
L 3309 4666 
L 3309 4134 
L 1259 4134 
L 1259 2759 
L 3109 2759 
L 3109 2228 
L 1259 2228 
L 1259 0 
L 628 0 
L 628 4666 
z
" transform="scale(0.015625)"/>
      <path id="DejaVuSans-77" d="M 269 3500 
L 844 3500 
L 1563 769 
L 2278 3500 
L 2956 3500 
L 3675 769 
L 4391 3500 
L 4966 3500 
L 4050 0 
L 3372 0 
L 2619 2869 
L 1863 0 
L 1184 0 
L 269 3500 
z
" transform="scale(0.015625)"/>
     </defs>
     <use xlink:href="#DejaVuSans-43"/>
     <use xlink:href="#DejaVuSans-65" x="69.824219"/>
     <use xlink:href="#DejaVuSans-72" x="131.347656"/>
     <use xlink:href="#DejaVuSans-65" x="170.210938"/>
     <use xlink:href="#DejaVuSans-62" x="231.734375"/>
     <use xlink:href="#DejaVuSans-72" x="295.210938"/>
     <use xlink:href="#DejaVuSans-61" x="336.324219"/>
     <use xlink:href="#DejaVuSans-6c" x="397.603516"/>
     <use xlink:href="#DejaVuSans-20" x="425.386719"/>
     <use xlink:href="#DejaVuSans-42" x="457.173828"/>
     <use xlink:href="#DejaVuSans-6c" x="525.777344"/>
     <use xlink:href="#DejaVuSans-6f" x="553.560547"/>
     <use xlink:href="#DejaVuSans-6f" x="614.742188"/>
     <use xlink:href="#DejaVuSans-64" x="675.923828"/>
     <use xlink:href="#DejaVuSans-20" x="739.400391"/>
     <use xlink:href="#DejaVuSans-46" x="771.1875"/>
     <use xlink:href="#DejaVuSans-6c" x="828.707031"/>
     <use xlink:href="#DejaVuSans-6f" x="856.490234"/>
     <use xlink:href="#DejaVuSans-77" x="917.671875"/>
    </g>
   </g>
  </g>
  <g id="axes_4">
   <g id="patch_17">
    <path d="M 33.64 450.86 
L 338.175 450.86 
L 338.175 367.65 
L 33.64 367.65 
z
" style="fill: #ffffff"/>
   </g>
   <g id="matplotlib.axis_7"/>
   <g id="matplotlib.axis_8">
    <g id="ytick_9">
     <g id="line2d_12">
      <g>
       <use xlink:href="#m5c554b0532" x="33.64" y="440.119982" style="stroke: #000000; stroke-width: 0.8"/>
      </g>
     </g>
     <g id="text_12">
      <!-- 1.0 -->
      <g transform="translate(10.736875 443.919201) scale(0.1 -0.1)">
       <use xlink:href="#DejaVuSans-31"/>
       <use xlink:href="#DejaVuSans-2e" x="63.623047"/>
       <use xlink:href="#DejaVuSans-30" x="95.410156"/>
      </g>
     </g>
    </g>
    <g id="ytick_10">
     <g id="line2d_13">
      <g>
       <use xlink:href="#m5c554b0532" x="33.64" y="412.5708" style="stroke: #000000; stroke-width: 0.8"/>
      </g>
     </g>
     <g id="text_13">
      <!-- 1.1 -->
      <g transform="translate(10.736875 416.370019) scale(0.1 -0.1)">
       <use xlink:href="#DejaVuSans-31"/>
       <use xlink:href="#DejaVuSans-2e" x="63.623047"/>
       <use xlink:href="#DejaVuSans-31" x="95.410156"/>
      </g>
     </g>
    </g>
    <g id="ytick_11">
     <g id="line2d_14">
      <g>
       <use xlink:href="#m5c554b0532" x="33.64" y="385.021618" style="stroke: #000000; stroke-width: 0.8"/>
      </g>
     </g>
     <g id="text_14">
      <!-- 1.2 -->
      <g transform="translate(10.736875 388.820836) scale(0.1 -0.1)">
       <use xlink:href="#DejaVuSans-31"/>
       <use xlink:href="#DejaVuSans-2e" x="63.623047"/>
       <use xlink:href="#DejaVuSans-32" x="95.410156"/>
      </g>
     </g>
    </g>
   </g>
   <g id="line2d_15">
    <path d="M 33.64 440.119982 
L 35.528117 440.009597 
L 36.365588 439.721052 
L 37.111699 439.223723 
L 37.85781 438.447365 
L 38.649601 437.286218 
L 39.527677 435.581557 
L 40.532642 433.115961 
L 41.73048 429.550362 
L 43.273457 424.203255 
L 46.03965 413.638917 
L 48.851523 403.24744 
L 50.790396 396.918502 
L 52.526246 391.987116 
L 54.165659 387.981103 
L 55.749241 384.683349 
L 57.30237 381.949599 
L 58.845347 379.673936 
L 60.3934 377.780239 
L 61.956679 376.213484 
L 63.560564 374.917789 
L 65.22028 373.861059 
L 66.96628 373.012483 
L 68.83917 372.351133 
L 70.884631 371.867814 
L 73.173719 371.559812 
L 75.818098 371.434295 
L 79.025866 371.513508 
L 83.274129 371.855391 
L 90.943336 372.739325 
L 101.459945 373.890845 
L 109.687465 374.556337 
L 118.615416 375.049482 
L 129.329973 375.409329 
L 143.612664 375.652057 
L 166.219312 375.788529 
L 187.958036 375.961474 
L 188.820885 376.279758 
L 189.617751 376.816428 
L 190.43492 377.645952 
L 191.323147 378.881147 
L 192.323037 380.672625 
L 193.490422 383.244986 
L 194.91666 386.959746 
L 196.799702 392.535305 
L 200.312005 403.790956 
L 203.748175 414.487857 
L 206.128624 421.184645 
L 208.219764 426.423694 
L 210.148486 430.672158 
L 211.965545 434.151367 
L 213.70647 437.016609 
L 215.391564 439.371803 
L 217.041128 441.302913 
L 218.67039 442.874075 
L 220.299653 444.14097 
L 221.954293 445.148257 
L 223.659689 445.926548 
L 225.446294 446.497092 
L 227.364865 446.874327 
L 229.476307 447.059338 
L 231.882134 447.041376 
L 234.75999 446.78914 
L 238.536224 446.220701 
L 245.611587 444.880688 
L 253.691915 443.435439 
L 260.107453 442.520383 
L 266.731089 441.803726 
L 274.100836 441.235494 
L 282.800386 440.795512 
L 293.804251 440.472687 
L 309.228948 440.259469 
L 335.586453 440.147984 
L 338.169924 440.14389 
L 338.169924 440.14389 
" clip-path="url(#p2e6e27acb8)" style="fill: none; stroke: #000000; stroke-width: 2; stroke-linecap: square"/>
   </g>
   <g id="patch_18">
    <path d="M 33.64 450.86 
L 33.64 367.65 
" style="fill: none; stroke: #000000; stroke-width: 0.8; stroke-linejoin: miter; stroke-linecap: square"/>
   </g>
   <g id="patch_19">
    <path d="M 338.175 450.86 
L 338.175 367.65 
" style="fill: none; stroke: #000000; stroke-width: 0.8; stroke-linejoin: miter; stroke-linecap: square"/>
   </g>
   <g id="patch_20">
    <path d="M 33.64 450.86 
L 338.175 450.86 
" style="fill: none; stroke: #000000; stroke-width: 0.8; stroke-linejoin: miter; stroke-linecap: square"/>
   </g>
   <g id="patch_21">
    <path d="M 33.64 367.65 
L 338.175 367.65 
" style="fill: none; stroke: #000000; stroke-width: 0.8; stroke-linejoin: miter; stroke-linecap: square"/>
   </g>
   <g id="text_15">
    <!-- Cerebral Blood Volume -->
    <g transform="translate(117.318125 361.65) scale(0.12 -0.12)">
     <defs>
      <path id="DejaVuSans-56" d="M 1831 0 
L 50 4666 
L 709 4666 
L 2188 738 
L 3669 4666 
L 4325 4666 
L 2547 0 
L 1831 0 
z
" transform="scale(0.015625)"/>
     </defs>
     <use xlink:href="#DejaVuSans-43"/>
     <use xlink:href="#DejaVuSans-65" x="69.824219"/>
     <use xlink:href="#DejaVuSans-72" x="131.347656"/>
     <use xlink:href="#DejaVuSans-65" x="170.210938"/>
     <use xlink:href="#DejaVuSans-62" x="231.734375"/>
     <use xlink:href="#DejaVuSans-72" x="295.210938"/>
     <use xlink:href="#DejaVuSans-61" x="336.324219"/>
     <use xlink:href="#DejaVuSans-6c" x="397.603516"/>
     <use xlink:href="#DejaVuSans-20" x="425.386719"/>
     <use xlink:href="#DejaVuSans-42" x="457.173828"/>
     <use xlink:href="#DejaVuSans-6c" x="525.777344"/>
     <use xlink:href="#DejaVuSans-6f" x="553.560547"/>
     <use xlink:href="#DejaVuSans-6f" x="614.742188"/>
     <use xlink:href="#DejaVuSans-64" x="675.923828"/>
     <use xlink:href="#DejaVuSans-20" x="739.400391"/>
     <use xlink:href="#DejaVuSans-56" x="771.1875"/>
     <use xlink:href="#DejaVuSans-6f" x="831.845703"/>
     <use xlink:href="#DejaVuSans-6c" x="893.027344"/>
     <use xlink:href="#DejaVuSans-75" x="920.810547"/>
     <use xlink:href="#DejaVuSans-6d" x="984.189453"/>
     <use xlink:href="#DejaVuSans-65" x="1081.601562"/>
    </g>
   </g>
  </g>
  <g id="axes_5">
   <g id="patch_22">
    <path d="M 33.64 564.45 
L 338.175 564.45 
L 338.175 481.24 
L 33.64 481.24 
z
" style="fill: #ffffff"/>
   </g>
   <g id="matplotlib.axis_9"/>
   <g id="matplotlib.axis_10">
    <g id="ytick_12">
     <g id="line2d_16">
      <g>
       <use xlink:href="#m5c554b0532" x="33.64" y="561.976804" style="stroke: #000000; stroke-width: 0.8"/>
      </g>
     </g>
     <g id="text_16">
      <!-- 0.7 -->
      <g transform="translate(10.736875 565.776023) scale(0.1 -0.1)">
       <defs>
        <path id="DejaVuSans-37" d="M 525 4666 
L 3525 4666 
L 3525 4397 
L 1831 0 
L 1172 0 
L 2766 4134 
L 525 4134 
L 525 4666 
z
" transform="scale(0.015625)"/>
       </defs>
       <use xlink:href="#DejaVuSans-30"/>
       <use xlink:href="#DejaVuSans-2e" x="63.623047"/>
       <use xlink:href="#DejaVuSans-37" x="95.410156"/>
      </g>
     </g>
    </g>
    <g id="ytick_13">
     <g id="line2d_17">
      <g>
       <use xlink:href="#m5c554b0532" x="33.64" y="538.138419" style="stroke: #000000; stroke-width: 0.8"/>
      </g>
     </g>
     <g id="text_17">
      <!-- 0.8 -->
      <g transform="translate(10.736875 541.937637) scale(0.1 -0.1)">
       <defs>
        <path id="DejaVuSans-38" d="M 2034 2216 
Q 1584 2216 1326 1975 
Q 1069 1734 1069 1313 
Q 1069 891 1326 650 
Q 1584 409 2034 409 
Q 2484 409 2743 651 
Q 3003 894 3003 1313 
Q 3003 1734 2745 1975 
Q 2488 2216 2034 2216 
z
M 1403 2484 
Q 997 2584 770 2862 
Q 544 3141 544 3541 
Q 544 4100 942 4425 
Q 1341 4750 2034 4750 
Q 2731 4750 3128 4425 
Q 3525 4100 3525 3541 
Q 3525 3141 3298 2862 
Q 3072 2584 2669 2484 
Q 3125 2378 3379 2068 
Q 3634 1759 3634 1313 
Q 3634 634 3220 271 
Q 2806 -91 2034 -91 
Q 1263 -91 848 271 
Q 434 634 434 1313 
Q 434 1759 690 2068 
Q 947 2378 1403 2484 
z
M 1172 3481 
Q 1172 3119 1398 2916 
Q 1625 2713 2034 2713 
Q 2441 2713 2670 2916 
Q 2900 3119 2900 3481 
Q 2900 3844 2670 4047 
Q 2441 4250 2034 4250 
Q 1625 4250 1398 4047 
Q 1172 3844 1172 3481 
z
" transform="scale(0.015625)"/>
       </defs>
       <use xlink:href="#DejaVuSans-30"/>
       <use xlink:href="#DejaVuSans-2e" x="63.623047"/>
       <use xlink:href="#DejaVuSans-38" x="95.410156"/>
      </g>
     </g>
    </g>
    <g id="ytick_14">
     <g id="line2d_18">
      <g>
       <use xlink:href="#m5c554b0532" x="33.64" y="514.300033" style="stroke: #000000; stroke-width: 0.8"/>
      </g>
     </g>
     <g id="text_18">
      <!-- 0.9 -->
      <g transform="translate(10.736875 518.099252) scale(0.1 -0.1)">
       <defs>
        <path id="DejaVuSans-39" d="M 703 97 
L 703 672 
Q 941 559 1184 500 
Q 1428 441 1663 441 
Q 2288 441 2617 861 
Q 2947 1281 2994 2138 
Q 2813 1869 2534 1725 
Q 2256 1581 1919 1581 
Q 1219 1581 811 2004 
Q 403 2428 403 3163 
Q 403 3881 828 4315 
Q 1253 4750 1959 4750 
Q 2769 4750 3195 4129 
Q 3622 3509 3622 2328 
Q 3622 1225 3098 567 
Q 2575 -91 1691 -91 
Q 1453 -91 1209 -44 
Q 966 3 703 97 
z
M 1959 2075 
Q 2384 2075 2632 2365 
Q 2881 2656 2881 3163 
Q 2881 3666 2632 3958 
Q 2384 4250 1959 4250 
Q 1534 4250 1286 3958 
Q 1038 3666 1038 3163 
Q 1038 2656 1286 2365 
Q 1534 2075 1959 2075 
z
" transform="scale(0.015625)"/>
       </defs>
       <use xlink:href="#DejaVuSans-30"/>
       <use xlink:href="#DejaVuSans-2e" x="63.623047"/>
       <use xlink:href="#DejaVuSans-39" x="95.410156"/>
      </g>
     </g>
    </g>
    <g id="ytick_15">
     <g id="line2d_19">
      <g>
       <use xlink:href="#m5c554b0532" x="33.64" y="490.461647" style="stroke: #000000; stroke-width: 0.8"/>
      </g>
     </g>
     <g id="text_19">
      <!-- 1.0 -->
      <g transform="translate(10.736875 494.260866) scale(0.1 -0.1)">
       <use xlink:href="#DejaVuSans-31"/>
       <use xlink:href="#DejaVuSans-2e" x="63.623047"/>
       <use xlink:href="#DejaVuSans-30" x="95.410156"/>
      </g>
     </g>
    </g>
   </g>
   <g id="line2d_20">
    <path d="M 33.64 490.461647 
L 37.781676 490.35057 
L 39.360182 490.41951 
L 40.431131 490.687215 
L 41.370113 491.152519 
L 42.273567 491.854155 
L 43.192248 492.85787 
L 44.16676 494.264116 
L 45.237708 496.218979 
L 46.445697 498.912045 
L 47.861784 502.642795 
L 49.663617 508.062616 
L 52.840932 518.474001 
L 56.043625 528.670413 
L 58.22105 534.872177 
L 60.149772 539.715374 
L 61.956679 543.667348 
L 63.687453 546.93179 
L 65.377623 549.655934 
L 67.04749 551.934211 
L 68.717356 553.84267 
L 70.407526 555.440508 
L 72.133224 556.769147 
L 73.924905 557.869778 
L 75.813022 558.769092 
L 77.843255 559.488067 
L 80.066361 560.036212 
L 82.563548 560.418057 
L 85.45663 560.628966 
L 88.968934 560.653187 
L 93.618168 560.448777 
L 101.698497 559.832646 
L 115.006676 558.851737 
L 125.183221 558.343557 
L 136.897667 557.99034 
L 152.403574 557.760262 
L 177.50741 557.637792 
L 190.34356 557.500028 
L 191.719043 557.204774 
L 192.921956 556.719156 
L 194.084265 556.006826 
L 195.271951 555.012211 
L 196.535772 553.654844 
L 197.921406 551.828146 
L 199.484685 549.383093 
L 201.301744 546.1083 
L 203.519774 541.626704 
L 206.549897 534.959289 
L 215.696099 514.531288 
L 218.568879 508.822729 
L 221.10667 504.260437 
L 223.441439 500.50939 
L 225.634091 497.397135 
L 227.735382 494.792857 
L 229.770691 492.618292 
L 231.765395 490.807194 
L 233.744873 489.305844 
L 235.739577 488.06954 
L 237.774886 487.068698 
L 239.881253 486.280438 
L 242.104359 485.686903 
L 244.500034 485.280033 
L 247.144413 485.060423 
L 250.164385 485.038545 
L 253.793427 485.243278 
L 258.620307 485.753452 
L 269.629247 487.221228 
L 278.410006 488.25172 
L 286.444655 488.966604 
L 295.118827 489.509914 
L 305.295371 489.916462 
L 318.319318 490.202022 
L 337.34768 490.376887 
L 338.169924 490.380941 
L 338.169924 490.380941 
" clip-path="url(#pa2c6ec849b)" style="fill: none; stroke: #000000; stroke-width: 2; stroke-linecap: square"/>
   </g>
   <g id="patch_23">
    <path d="M 33.64 564.45 
L 33.64 481.24 
" style="fill: none; stroke: #000000; stroke-width: 0.8; stroke-linejoin: miter; stroke-linecap: square"/>
   </g>
   <g id="patch_24">
    <path d="M 338.175 564.45 
L 338.175 481.24 
" style="fill: none; stroke: #000000; stroke-width: 0.8; stroke-linejoin: miter; stroke-linecap: square"/>
   </g>
   <g id="patch_25">
    <path d="M 33.64 564.45 
L 338.175 564.45 
" style="fill: none; stroke: #000000; stroke-width: 0.8; stroke-linejoin: miter; stroke-linecap: square"/>
   </g>
   <g id="patch_26">
    <path d="M 33.64 481.24 
L 338.175 481.24 
" style="fill: none; stroke: #000000; stroke-width: 0.8; stroke-linejoin: miter; stroke-linecap: square"/>
   </g>
   <g id="text_20">
    <!-- Deoxyhemoglobin Content -->
    <g transform="translate(105.804688 475.24) scale(0.12 -0.12)">
     <defs>
      <path id="DejaVuSans-44" d="M 1259 4147 
L 1259 519 
L 2022 519 
Q 2988 519 3436 956 
Q 3884 1394 3884 2338 
Q 3884 3275 3436 3711 
Q 2988 4147 2022 4147 
L 1259 4147 
z
M 628 4666 
L 1925 4666 
Q 3281 4666 3915 4102 
Q 4550 3538 4550 2338 
Q 4550 1131 3912 565 
Q 3275 0 1925 0 
L 628 0 
L 628 4666 
z
" transform="scale(0.015625)"/>
      <path id="DejaVuSans-78" d="M 3513 3500 
L 2247 1797 
L 3578 0 
L 2900 0 
L 1881 1375 
L 863 0 
L 184 0 
L 1544 1831 
L 300 3500 
L 978 3500 
L 1906 2253 
L 2834 3500 
L 3513 3500 
z
" transform="scale(0.015625)"/>
      <path id="DejaVuSans-79" d="M 2059 -325 
Q 1816 -950 1584 -1140 
Q 1353 -1331 966 -1331 
L 506 -1331 
L 506 -850 
L 844 -850 
Q 1081 -850 1212 -737 
Q 1344 -625 1503 -206 
L 1606 56 
L 191 3500 
L 800 3500 
L 1894 763 
L 2988 3500 
L 3597 3500 
L 2059 -325 
z
" transform="scale(0.015625)"/>
      <path id="DejaVuSans-68" d="M 3513 2113 
L 3513 0 
L 2938 0 
L 2938 2094 
Q 2938 2591 2744 2837 
Q 2550 3084 2163 3084 
Q 1697 3084 1428 2787 
Q 1159 2491 1159 1978 
L 1159 0 
L 581 0 
L 581 4863 
L 1159 4863 
L 1159 2956 
Q 1366 3272 1645 3428 
Q 1925 3584 2291 3584 
Q 2894 3584 3203 3211 
Q 3513 2838 3513 2113 
z
" transform="scale(0.015625)"/>
      <path id="DejaVuSans-67" d="M 2906 1791 
Q 2906 2416 2648 2759 
Q 2391 3103 1925 3103 
Q 1463 3103 1205 2759 
Q 947 2416 947 1791 
Q 947 1169 1205 825 
Q 1463 481 1925 481 
Q 2391 481 2648 825 
Q 2906 1169 2906 1791 
z
M 3481 434 
Q 3481 -459 3084 -895 
Q 2688 -1331 1869 -1331 
Q 1566 -1331 1297 -1286 
Q 1028 -1241 775 -1147 
L 775 -588 
Q 1028 -725 1275 -790 
Q 1522 -856 1778 -856 
Q 2344 -856 2625 -561 
Q 2906 -266 2906 331 
L 2906 616 
Q 2728 306 2450 153 
Q 2172 0 1784 0 
Q 1141 0 747 490 
Q 353 981 353 1791 
Q 353 2603 747 3093 
Q 1141 3584 1784 3584 
Q 2172 3584 2450 3431 
Q 2728 3278 2906 2969 
L 2906 3500 
L 3481 3500 
L 3481 434 
z
" transform="scale(0.015625)"/>
     </defs>
     <use xlink:href="#DejaVuSans-44"/>
     <use xlink:href="#DejaVuSans-65" x="77.001953"/>
     <use xlink:href="#DejaVuSans-6f" x="138.525391"/>
     <use xlink:href="#DejaVuSans-78" x="196.582031"/>
     <use xlink:href="#DejaVuSans-79" x="255.761719"/>
     <use xlink:href="#DejaVuSans-68" x="314.941406"/>
     <use xlink:href="#DejaVuSans-65" x="378.320312"/>
     <use xlink:href="#DejaVuSans-6d" x="439.84375"/>
     <use xlink:href="#DejaVuSans-6f" x="537.255859"/>
     <use xlink:href="#DejaVuSans-67" x="598.4375"/>
     <use xlink:href="#DejaVuSans-6c" x="661.914062"/>
     <use xlink:href="#DejaVuSans-6f" x="689.697266"/>
     <use xlink:href="#DejaVuSans-62" x="750.878906"/>
     <use xlink:href="#DejaVuSans-69" x="814.355469"/>
     <use xlink:href="#DejaVuSans-6e" x="842.138672"/>
     <use xlink:href="#DejaVuSans-20" x="905.517578"/>
     <use xlink:href="#DejaVuSans-43" x="937.304688"/>
     <use xlink:href="#DejaVuSans-6f" x="1007.128906"/>
     <use xlink:href="#DejaVuSans-6e" x="1068.310547"/>
     <use xlink:href="#DejaVuSans-74" x="1131.689453"/>
     <use xlink:href="#DejaVuSans-65" x="1170.898438"/>
     <use xlink:href="#DejaVuSans-6e" x="1232.421875"/>
     <use xlink:href="#DejaVuSans-74" x="1295.800781"/>
    </g>
   </g>
  </g>
  <g id="axes_6">
   <g id="patch_27">
    <path d="M 33.64 678.04 
L 338.175 678.04 
L 338.175 594.83 
L 33.64 594.83 
z
" style="fill: #ffffff"/>
   </g>
   <g id="matplotlib.axis_11">
    <g id="xtick_1">
     <g id="line2d_21">
      <defs>
       <path id="mc5f71ea574" d="M 0 0 
L 0 3.5 
" style="stroke: #000000; stroke-width: 0.8"/>
      </defs>
      <g>
       <use xlink:href="#mc5f71ea574" x="33.64" y="678.04" style="stroke: #000000; stroke-width: 0.8"/>
      </g>
     </g>
     <g id="text_21">
      <!-- 6.0 -->
      <g transform="translate(25.688437 692.638438) scale(0.1 -0.1)">
       <defs>
        <path id="DejaVuSans-36" d="M 2113 2584 
Q 1688 2584 1439 2293 
Q 1191 2003 1191 1497 
Q 1191 994 1439 701 
Q 1688 409 2113 409 
Q 2538 409 2786 701 
Q 3034 994 3034 1497 
Q 3034 2003 2786 2293 
Q 2538 2584 2113 2584 
z
M 3366 4563 
L 3366 3988 
Q 3128 4100 2886 4159 
Q 2644 4219 2406 4219 
Q 1781 4219 1451 3797 
Q 1122 3375 1075 2522 
Q 1259 2794 1537 2939 
Q 1816 3084 2150 3084 
Q 2853 3084 3261 2657 
Q 3669 2231 3669 1497 
Q 3669 778 3244 343 
Q 2819 -91 2113 -91 
Q 1303 -91 875 529 
Q 447 1150 447 2328 
Q 447 3434 972 4092 
Q 1497 4750 2381 4750 
Q 2619 4750 2861 4703 
Q 3103 4656 3366 4563 
z
" transform="scale(0.015625)"/>
       </defs>
       <use xlink:href="#DejaVuSans-36"/>
       <use xlink:href="#DejaVuSans-2e" x="63.623047"/>
       <use xlink:href="#DejaVuSans-30" x="95.410156"/>
      </g>
     </g>
    </g>
    <g id="xtick_2">
     <g id="line2d_22">
      <g>
       <use xlink:href="#mc5f71ea574" x="94.547" y="678.04" style="stroke: #000000; stroke-width: 0.8"/>
      </g>
     </g>
     <g id="text_22">
      <!-- 15.0 -->
      <g transform="translate(83.414187 692.638438) scale(0.1 -0.1)">
       <use xlink:href="#DejaVuSans-31"/>
       <use xlink:href="#DejaVuSans-35" x="63.623047"/>
       <use xlink:href="#DejaVuSans-2e" x="127.246094"/>
       <use xlink:href="#DejaVuSans-30" x="159.033203"/>
      </g>
     </g>
    </g>
    <g id="xtick_3">
     <g id="line2d_23">
      <g>
       <use xlink:href="#mc5f71ea574" x="155.454" y="678.04" style="stroke: #000000; stroke-width: 0.8"/>
      </g>
     </g>
     <g id="text_23">
      <!-- 24.0 -->
      <g transform="translate(144.321188 692.638438) scale(0.1 -0.1)">
       <defs>
        <path id="DejaVuSans-34" d="M 2419 4116 
L 825 1625 
L 2419 1625 
L 2419 4116 
z
M 2253 4666 
L 3047 4666 
L 3047 1625 
L 3713 1625 
L 3713 1100 
L 3047 1100 
L 3047 0 
L 2419 0 
L 2419 1100 
L 313 1100 
L 313 1709 
L 2253 4666 
z
" transform="scale(0.015625)"/>
       </defs>
       <use xlink:href="#DejaVuSans-32"/>
       <use xlink:href="#DejaVuSans-34" x="63.623047"/>
       <use xlink:href="#DejaVuSans-2e" x="127.246094"/>
       <use xlink:href="#DejaVuSans-30" x="159.033203"/>
      </g>
     </g>
    </g>
    <g id="xtick_4">
     <g id="line2d_24">
      <g>
       <use xlink:href="#mc5f71ea574" x="216.361" y="678.04" style="stroke: #000000; stroke-width: 0.8"/>
      </g>
     </g>
     <g id="text_24">
      <!-- 32.0 -->
      <g transform="translate(205.228188 692.638438) scale(0.1 -0.1)">
       <defs>
        <path id="DejaVuSans-33" d="M 2597 2516 
Q 3050 2419 3304 2112 
Q 3559 1806 3559 1356 
Q 3559 666 3084 287 
Q 2609 -91 1734 -91 
Q 1441 -91 1130 -33 
Q 819 25 488 141 
L 488 750 
Q 750 597 1062 519 
Q 1375 441 1716 441 
Q 2309 441 2620 675 
Q 2931 909 2931 1356 
Q 2931 1769 2642 2001 
Q 2353 2234 1838 2234 
L 1294 2234 
L 1294 2753 
L 1863 2753 
Q 2328 2753 2575 2939 
Q 2822 3125 2822 3475 
Q 2822 3834 2567 4026 
Q 2313 4219 1838 4219 
Q 1578 4219 1281 4162 
Q 984 4106 628 3988 
L 628 4550 
Q 988 4650 1302 4700 
Q 1616 4750 1894 4750 
Q 2613 4750 3031 4423 
Q 3450 4097 3450 3541 
Q 3450 3153 3228 2886 
Q 3006 2619 2597 2516 
z
" transform="scale(0.015625)"/>
       </defs>
       <use xlink:href="#DejaVuSans-33"/>
       <use xlink:href="#DejaVuSans-32" x="63.623047"/>
       <use xlink:href="#DejaVuSans-2e" x="127.246094"/>
       <use xlink:href="#DejaVuSans-30" x="159.033203"/>
      </g>
     </g>
    </g>
    <g id="xtick_5">
     <g id="line2d_25">
      <g>
       <use xlink:href="#mc5f71ea574" x="277.268" y="678.04" style="stroke: #000000; stroke-width: 0.8"/>
      </g>
     </g>
     <g id="text_25">
      <!-- 41.0 -->
      <g transform="translate(266.135188 692.638438) scale(0.1 -0.1)">
       <use xlink:href="#DejaVuSans-34"/>
       <use xlink:href="#DejaVuSans-31" x="63.623047"/>
       <use xlink:href="#DejaVuSans-2e" x="127.246094"/>
       <use xlink:href="#DejaVuSans-30" x="159.033203"/>
      </g>
     </g>
    </g>
    <g id="xtick_6">
     <g id="line2d_26">
      <g>
       <use xlink:href="#mc5f71ea574" x="338.175" y="678.04" style="stroke: #000000; stroke-width: 0.8"/>
      </g>
     </g>
     <g id="text_26">
      <!-- 50.0 -->
      <g transform="translate(327.042188 692.638438) scale(0.1 -0.1)">
       <use xlink:href="#DejaVuSans-35"/>
       <use xlink:href="#DejaVuSans-30" x="63.623047"/>
       <use xlink:href="#DejaVuSans-2e" x="127.246094"/>
       <use xlink:href="#DejaVuSans-30" x="159.033203"/>
      </g>
     </g>
    </g>
    <g id="text_27">
     <!-- Time (s) -->
     <g transform="translate(165.578594 706.316563) scale(0.1 -0.1)">
      <defs>
       <path id="DejaVuSans-54" d="M -19 4666 
L 3928 4666 
L 3928 4134 
L 2272 4134 
L 2272 0 
L 1638 0 
L 1638 4134 
L -19 4134 
L -19 4666 
z
" transform="scale(0.015625)"/>
       <path id="DejaVuSans-28" d="M 1984 4856 
Q 1566 4138 1362 3434 
Q 1159 2731 1159 2009 
Q 1159 1288 1364 580 
Q 1569 -128 1984 -844 
L 1484 -844 
Q 1016 -109 783 600 
Q 550 1309 550 2009 
Q 550 2706 781 3412 
Q 1013 4119 1484 4856 
L 1984 4856 
z
" transform="scale(0.015625)"/>
       <path id="DejaVuSans-29" d="M 513 4856 
L 1013 4856 
Q 1481 4119 1714 3412 
Q 1947 2706 1947 2009 
Q 1947 1309 1714 600 
Q 1481 -109 1013 -844 
L 513 -844 
Q 928 -128 1133 580 
Q 1338 1288 1338 2009 
Q 1338 2731 1133 3434 
Q 928 4138 513 4856 
z
" transform="scale(0.015625)"/>
      </defs>
      <use xlink:href="#DejaVuSans-54"/>
      <use xlink:href="#DejaVuSans-69" x="57.958984"/>
      <use xlink:href="#DejaVuSans-6d" x="85.742188"/>
      <use xlink:href="#DejaVuSans-65" x="183.154297"/>
      <use xlink:href="#DejaVuSans-20" x="244.677734"/>
      <use xlink:href="#DejaVuSans-28" x="276.464844"/>
      <use xlink:href="#DejaVuSans-73" x="315.478516"/>
      <use xlink:href="#DejaVuSans-29" x="367.578125"/>
     </g>
    </g>
   </g>
   <g id="matplotlib.axis_12">
    <g id="ytick_16">
     <g id="line2d_27">
      <g>
       <use xlink:href="#m5c554b0532" x="33.64" y="668.676305" style="stroke: #000000; stroke-width: 0.8"/>
      </g>
     </g>
     <g id="text_28">
      <!-- 0 -->
      <g transform="translate(20.2775 672.475524) scale(0.1 -0.1)">
       <use xlink:href="#DejaVuSans-30"/>
      </g>
     </g>
    </g>
    <g id="ytick_17">
     <g id="line2d_28">
      <g>
       <use xlink:href="#m5c554b0532" x="33.64" y="646.710967" style="stroke: #000000; stroke-width: 0.8"/>
      </g>
     </g>
     <g id="text_29">
      <!-- 1 -->
      <g transform="translate(20.2775 650.510186) scale(0.1 -0.1)">
       <use xlink:href="#DejaVuSans-31"/>
      </g>
     </g>
    </g>
    <g id="ytick_18">
     <g id="line2d_29">
      <g>
       <use xlink:href="#m5c554b0532" x="33.64" y="624.745629" style="stroke: #000000; stroke-width: 0.8"/>
      </g>
     </g>
     <g id="text_30">
      <!-- 2 -->
      <g transform="translate(20.2775 628.544848) scale(0.1 -0.1)">
       <use xlink:href="#DejaVuSans-32"/>
      </g>
     </g>
    </g>
    <g id="ytick_19">
     <g id="line2d_30">
      <g>
       <use xlink:href="#m5c554b0532" x="33.64" y="602.780291" style="stroke: #000000; stroke-width: 0.8"/>
      </g>
     </g>
     <g id="text_31">
      <!-- 3 -->
      <g transform="translate(20.2775 606.57951) scale(0.1 -0.1)">
       <use xlink:href="#DejaVuSans-33"/>
      </g>
     </g>
    </g>
   </g>
   <g id="line2d_31">
    <path d="M 33.64 668.676305 
L 36.42142 668.787276 
L 38.867851 669.192517 
L 40.258561 669.29151 
L 41.243224 669.142187 
L 42.116224 668.783766 
L 42.958771 668.19242 
L 43.826696 667.30097 
L 44.750452 666.019249 
L 45.765569 664.212932 
L 46.917726 661.684229 
L 48.267831 658.153793 
L 49.963076 653.05536 
L 52.64806 644.167486 
L 56.444596 631.736212 
L 58.637248 625.331697 
L 60.571045 620.347194 
L 62.377953 616.286458 
L 64.113802 612.919044 
L 65.803972 610.114204 
L 67.473838 607.764897 
L 69.143705 605.793368 
L 70.828799 604.143546 
L 72.549422 602.766888 
L 74.330952 601.624295 
L 76.203842 600.686605 
L 78.208697 599.932448 
L 80.396274 599.349494 
L 82.842705 598.931838 
L 85.659654 598.682532 
L 89.045068 598.6146 
L 93.425296 598.761862 
L 100.328089 599.244596 
L 116.833886 600.439483 
L 127.198228 600.924834 
L 139.318721 601.260104 
L 155.687477 601.474318 
L 183.324028 601.582814 
L 192.470229 601.707893 
L 193.688369 602.087163 
L 194.845602 602.683194 
L 196.018062 603.543777 
L 197.251429 604.734049 
L 198.591383 606.348205 
L 200.083604 608.508783 
L 201.789 611.38693 
L 203.809082 615.254314 
L 206.357025 620.642694 
L 210.336283 629.651468 
L 216.046314 642.4972 
L 219.122117 648.854365 
L 221.741118 653.772814 
L 224.116491 657.773026 
L 226.329446 661.074718 
L 228.430737 663.819878 
L 230.460971 666.113447 
L 232.445524 668.025005 
L 234.404699 669.607945 
L 236.36895 670.91237 
L 238.363654 671.972146 
L 240.424341 672.815485 
L 242.586539 673.459081 
L 244.901005 673.913737 
L 247.438797 674.18187 
L 250.306501 674.255751 
L 253.691915 674.112786 
L 258.026464 673.694442 
L 265.101827 672.754701 
L 276.887331 671.212514 
L 284.805241 670.419282 
L 293.073367 669.818806 
L 302.513952 669.362995 
L 314.182718 669.032527 
L 330.252014 668.816124 
L 338.169924 668.76373 
L 338.169924 668.76373 
" clip-path="url(#p7dddf4317f)" style="fill: none; stroke: #000000; stroke-width: 2; stroke-linecap: square"/>
   </g>
   <g id="patch_28">
    <path d="M 33.64 678.04 
L 33.64 594.83 
" style="fill: none; stroke: #000000; stroke-width: 0.8; stroke-linejoin: miter; stroke-linecap: square"/>
   </g>
   <g id="patch_29">
    <path d="M 338.175 678.04 
L 338.175 594.83 
" style="fill: none; stroke: #000000; stroke-width: 0.8; stroke-linejoin: miter; stroke-linecap: square"/>
   </g>
   <g id="patch_30">
    <path d="M 33.64 678.04 
L 338.175 678.04 
" style="fill: none; stroke: #000000; stroke-width: 0.8; stroke-linejoin: miter; stroke-linecap: square"/>
   </g>
   <g id="patch_31">
    <path d="M 33.64 594.83 
L 338.175 594.83 
" style="fill: none; stroke: #000000; stroke-width: 0.8; stroke-linejoin: miter; stroke-linecap: square"/>
   </g>
   <g id="text_32">
    <!-- BOLD Signal -->
    <g transform="translate(148.871563 588.83) scale(0.12 -0.12)">
     <defs>
      <path id="DejaVuSans-4f" d="M 2522 4238 
Q 1834 4238 1429 3725 
Q 1025 3213 1025 2328 
Q 1025 1447 1429 934 
Q 1834 422 2522 422 
Q 3209 422 3611 934 
Q 4013 1447 4013 2328 
Q 4013 3213 3611 3725 
Q 3209 4238 2522 4238 
z
M 2522 4750 
Q 3503 4750 4090 4092 
Q 4678 3434 4678 2328 
Q 4678 1225 4090 567 
Q 3503 -91 2522 -91 
Q 1538 -91 948 565 
Q 359 1222 359 2328 
Q 359 3434 948 4092 
Q 1538 4750 2522 4750 
z
" transform="scale(0.015625)"/>
      <path id="DejaVuSans-4c" d="M 628 4666 
L 1259 4666 
L 1259 531 
L 3531 531 
L 3531 0 
L 628 0 
L 628 4666 
z
" transform="scale(0.015625)"/>
     </defs>
     <use xlink:href="#DejaVuSans-42"/>
     <use xlink:href="#DejaVuSans-4f" x="66.853516"/>
     <use xlink:href="#DejaVuSans-4c" x="145.564453"/>
     <use xlink:href="#DejaVuSans-44" x="201.277344"/>
     <use xlink:href="#DejaVuSans-20" x="278.279297"/>
     <use xlink:href="#DejaVuSans-53" x="310.066406"/>
     <use xlink:href="#DejaVuSans-69" x="373.542969"/>
     <use xlink:href="#DejaVuSans-67" x="401.326172"/>
     <use xlink:href="#DejaVuSans-6e" x="464.802734"/>
     <use xlink:href="#DejaVuSans-61" x="528.181641"/>
     <use xlink:href="#DejaVuSans-6c" x="589.460938"/>
    </g>
   </g>
  </g>
 </g>
 <defs>
  <clipPath id="p61331c5ca7">
   <rect x="33.64" y="26.88" width="304.535" height="83.21"/>
  </clipPath>
  <clipPath id="p0a92d2ddff">
   <rect x="33.64" y="140.47" width="304.535" height="83.21"/>
  </clipPath>
  <clipPath id="p4130289b6b">
   <rect x="33.64" y="254.06" width="304.535" height="83.21"/>
  </clipPath>
  <clipPath id="p2e6e27acb8">
   <rect x="33.64" y="367.65" width="304.535" height="83.21"/>
  </clipPath>
  <clipPath id="pa2c6ec849b">
   <rect x="33.64" y="481.24" width="304.535" height="83.21"/>
  </clipPath>
  <clipPath id="p7dddf4317f">
   <rect x="33.64" y="594.83" width="304.535" height="83.21"/>
  </clipPath>
 </defs>
</svg>
